<?xml version="1.0" encoding="UTF-8"?>
<svg xmlns="http://www.w3.org/2000/svg" xmlns:xlink="http://www.w3.org/1999/xlink" width="16pt" height="16pt" viewBox="0 0 16 16" version="1.1">
<g id="surface1">
<path style=" stroke:none;fill-rule:nonzero;fill:rgb(80.784314%,0%,0%);fill-opacity:1;" d="M 8 0 C 3.582031 0 0 3.582031 0 8 C 0 12.417969 3.582031 16 8 16 C 12.417969 16 16 12.417969 16 8 C 16 3.582031 12.417969 0 8 0 Z M 8 2 C 9.378906 2 10.648438 2.46875 11.664062 3.25 L 3.25 11.664062 C 2.46875 10.648438 2 9.378906 2 8 C 2 4.6875 4.6875 2 8 2 Z M 8 14 C 6.789062 14 5.664062 13.640625 4.71875 13.023438 L 13.023438 4.71875 C 13.640625 5.664062 14 6.789062 14 8 C 14 11.3125 11.3125 14 8 14 Z M 8 14 "/>
</g>
</svg>
