<?xml version="1.0" encoding="UTF-8"?>
<svg xmlns="http://www.w3.org/2000/svg" xmlns:xlink="http://www.w3.org/1999/xlink" width="16pt" height="16pt" viewBox="0 0 16 16" version="1.1">
<g id="surface1">
<path style=" stroke:none;fill-rule:nonzero;fill:rgb(80.784314%,0%,0%);fill-opacity:1;" d="M 8 11 C 8.550781 11 9 10.550781 9 10 L 9 1.007812 C 9 0.460938 8.550781 0.0078125 8 0.0078125 C 7.449219 0.0078125 7 0.460938 7 1.007812 L 7 10 C 7 10.550781 7.449219 11 8 11 Z M 8 11 "/>
<path style=" stroke:none;fill-rule:nonzero;fill:rgb(80.784314%,0%,0%);fill-opacity:1;" d="M 8 15.992188 C 8.550781 15.992188 9 15.539062 9 14.992188 L 9 14.136719 C 9 13.589844 8.550781 13.136719 8 13.136719 C 7.449219 13.136719 7 13.589844 7 14.136719 L 7 14.992188 C 7 15.539062 7.449219 15.992188 8 15.992188 Z M 8 15.992188 "/>
<path style=" stroke:none;fill-rule:nonzero;fill:rgb(80.784314%,0%,0%);fill-opacity:1;" d="M 12.398438 5.40625 C 12.789062 5.019531 12.789062 4.382812 12.398438 3.992188 L 8.707031 0.300781 C 8.316406 -0.0898438 7.679688 -0.0898438 7.292969 0.300781 C 6.902344 0.691406 6.902344 1.328125 7.292969 1.714844 L 10.984375 5.40625 C 11.371094 5.796875 12.007812 5.796875 12.398438 5.40625 Z M 12.398438 5.40625 "/>
<path style=" stroke:none;fill-rule:nonzero;fill:rgb(80.784314%,0%,0%);fill-opacity:1;" d="M 3.558594 5.40625 C 3.171875 5.019531 3.171875 4.382812 3.558594 3.992188 L 7.253906 0.300781 C 7.640625 -0.0898438 8.277344 -0.0898438 8.667969 0.300781 C 9.054688 0.691406 9.054688 1.328125 8.667969 1.714844 L 4.972656 5.40625 C 4.585938 5.796875 3.949219 5.796875 3.558594 5.40625 Z M 3.558594 5.40625 "/>
</g>
</svg>
