<?xml version="1.0" encoding="UTF-8"?>
<svg xmlns="http://www.w3.org/2000/svg" xmlns:xlink="http://www.w3.org/1999/xlink" width="16pt" height="16pt" viewBox="0 0 16 16" version="1.1">
<g id="surface1">
<path style=" stroke:none;fill-rule:nonzero;fill:rgb(80.784314%,0%,0%);fill-opacity:1;" d="M 12.398438 7.398438 C 12.789062 7.007812 12.789062 6.371094 12.398438 5.984375 L 8.707031 2.292969 C 8.316406 1.902344 7.679688 1.902344 7.292969 2.292969 C 6.902344 2.679688 6.902344 3.316406 7.292969 3.707031 L 10.984375 7.398438 C 11.371094 7.785156 12.007812 7.785156 12.398438 7.398438 Z M 12.398438 7.398438 "/>
<path style=" stroke:none;fill-rule:nonzero;fill:rgb(80.784314%,0%,0%);fill-opacity:1;" d="M 3.558594 7.398438 C 3.171875 7.007812 3.171875 6.371094 3.558594 5.984375 L 7.253906 2.292969 C 7.640625 1.902344 8.277344 1.902344 8.667969 2.292969 C 9.054688 2.679688 9.054688 3.316406 8.667969 3.707031 L 4.972656 7.398438 C 4.585938 7.785156 3.949219 7.785156 3.558594 7.398438 Z M 3.558594 7.398438 "/>
<path style=" stroke:none;fill-rule:nonzero;fill:rgb(91.764706%,26.666667%,26.666667%);fill-opacity:1;" d="M 12.398438 12.390625 C 12.789062 12 12.789062 11.363281 12.398438 10.976562 L 8.707031 7.28125 C 8.316406 6.894531 7.679688 6.894531 7.292969 7.28125 C 6.902344 7.671875 6.902344 8.308594 7.292969 8.695312 L 10.984375 12.390625 C 11.371094 12.777344 12.007812 12.777344 12.398438 12.390625 Z M 12.398438 12.390625 "/>
<path style=" stroke:none;fill-rule:nonzero;fill:rgb(91.764706%,26.666667%,26.666667%);fill-opacity:1;" d="M 3.558594 12.390625 C 3.171875 12 3.171875 11.363281 3.558594 10.976562 L 7.253906 7.28125 C 7.640625 6.894531 8.277344 6.894531 8.667969 7.28125 C 9.054688 7.671875 9.054688 8.308594 8.667969 8.695312 L 4.972656 12.390625 C 4.585938 12.777344 3.949219 12.777344 3.558594 12.390625 Z M 3.558594 12.390625 "/>
</g>
</svg>
