<?xml version="1.0" encoding="UTF-8"?>
<svg xmlns="http://www.w3.org/2000/svg" xmlns:xlink="http://www.w3.org/1999/xlink" width="16pt" height="16pt" viewBox="0 0 16 16" version="1.1">
<g id="surface1">
<path style=" stroke:none;fill-rule:nonzero;fill:rgb(33.333333%,64.705882%,34.117647%);fill-opacity:1;" d="M 12.417969 2.640625 C 12.03125 2.253906 11.394531 2.253906 11.003906 2.640625 L 8 5.644531 L 4.996094 2.640625 C 4.605469 2.253906 3.96875 2.253906 3.582031 2.640625 C 3.191406 3.03125 3.191406 3.667969 3.582031 4.054688 L 7.273438 7.746094 C 7.472656 7.945312 7.738281 8.042969 8 8.039062 C 8.261719 8.042969 8.527344 7.945312 8.726562 7.746094 L 12.417969 4.054688 C 12.808594 3.667969 12.808594 3.03125 12.417969 2.640625 Z M 12.417969 2.640625 "/>
<path style=" stroke:none;fill-rule:nonzero;fill:rgb(16.470588%,52.941176%,20.784314%);fill-opacity:1;" d="M 3.558594 7.632812 C 3.171875 8.019531 3.171875 8.65625 3.558594 9.046875 L 7.253906 12.738281 C 7.640625 13.128906 8.277344 13.128906 8.667969 12.738281 C 9.054688 12.347656 9.054688 11.714844 8.667969 11.324219 L 4.972656 7.632812 C 4.585938 7.242188 3.949219 7.242188 3.558594 7.632812 Z M 3.558594 7.632812 "/>
<path style=" stroke:none;fill-rule:nonzero;fill:rgb(16.470588%,52.941176%,20.784314%);fill-opacity:1;" d="M 12.398438 7.632812 C 12.789062 8.019531 12.789062 8.65625 12.398438 9.046875 L 8.707031 12.738281 C 8.316406 13.128906 7.679688 13.128906 7.292969 12.738281 C 6.902344 12.347656 6.902344 11.714844 7.292969 11.324219 L 10.984375 7.632812 C 11.371094 7.242188 12.007812 7.242188 12.398438 7.632812 Z M 12.398438 7.632812 "/>
</g>
</svg>
