<?xml version="1.0" encoding="UTF-8"?>
<svg xmlns="http://www.w3.org/2000/svg" xmlns:xlink="http://www.w3.org/1999/xlink" width="16pt" height="16pt" viewBox="0 0 16 16" version="1.1">
<g id="surface1">
<path style=" stroke:none;fill-rule:nonzero;fill:rgb(60.392157%,63.137255%,69.803922%);fill-opacity:1;" d="M 8 2.007812 C 7.449219 2.007812 7 2.460938 7 3.007812 L 7 12.992188 C 7 13.539062 7.449219 13.992188 8 13.992188 C 8.550781 13.992188 9 13.539062 9 12.992188 L 9 3.007812 C 9 2.460938 8.550781 2.007812 8 2.007812 Z M 8 2.007812 "/>
<path style=" stroke:none;fill-rule:nonzero;fill:rgb(60.392157%,63.137255%,69.803922%);fill-opacity:1;" d="M 3.558594 8.59375 C 3.171875 8.980469 3.171875 9.617188 3.558594 10.007812 L 7.253906 13.699219 C 7.640625 14.089844 8.277344 14.089844 8.667969 13.699219 C 9.054688 13.308594 9.054688 12.671875 8.667969 12.285156 L 4.972656 8.59375 C 4.585938 8.203125 3.949219 8.203125 3.558594 8.59375 Z M 3.558594 8.59375 "/>
<path style=" stroke:none;fill-rule:nonzero;fill:rgb(60.392157%,63.137255%,69.803922%);fill-opacity:1;" d="M 12.398438 8.59375 C 12.789062 8.980469 12.789062 9.617188 12.398438 10.007812 L 8.707031 13.699219 C 8.316406 14.089844 7.679688 14.089844 7.292969 13.699219 C 6.902344 13.308594 6.902344 12.671875 7.292969 12.285156 L 10.984375 8.59375 C 11.371094 8.203125 12.007812 8.203125 12.398438 8.59375 Z M 12.398438 8.59375 "/>
</g>
</svg>
